<?xml version="1.0" encoding="UTF-8" standalone="no"?>
<!-- Generator: Adobe Illustrator 21.0.2, SVG Export Plug-In . SVG Version: 6.00 Build 0)  -->

<svg
   version="1.1"
   id="Layer_1"
   x="0px"
   y="0px"
   viewBox="0 0 750 750"
   style="enable-background:new 0 0 750 750;"
   xml:space="preserve"
   sodipodi:docname="Mickey_hands.svg"
   inkscape:version="1.2.2 (732a01da63, 2022-12-09)"
   xmlns:inkscape="http://www.inkscape.org/namespaces/inkscape"
   xmlns:sodipodi="http://sodipodi.sourceforge.net/DTD/sodipodi-0.dtd"
   xmlns="http://www.w3.org/2000/svg"
   xmlns:svg="http://www.w3.org/2000/svg"><defs
   id="defs342">
	
	

		
	</defs><sodipodi:namedview
   id="namedview340"
   pagecolor="#ffffff"
   bordercolor="#111111"
   borderopacity="1"
   inkscape:showpageshadow="0"
   inkscape:pageopacity="0"
   inkscape:pagecheckerboard="1"
   inkscape:deskcolor="#d1d1d1"
   showgrid="false"
   inkscape:zoom="1.212"
   inkscape:cx="306.10561"
   inkscape:cy="375.41254"
   inkscape:window-width="2048"
   inkscape:window-height="1089"
   inkscape:window-x="-8"
   inkscape:window-y="-8"
   inkscape:window-maximized="1"
   inkscape:current-layer="g333" />
<g
   id="g333"
   transform="translate(-6.6006601,33.0033)">
			<path
   d="m 640.1,442.2 c -16.9,-11.7 -36.2,-15.8 -56.6,-13.5 -3.5,0.4 -6.4,0.1 -9.5,-2 -36.5,-24.3 -76.8,-32.5 -120,-28.3 -25.2,2.4 -50,7.6 -75.6,6.8 -31.9,-1.1 -63.5,-4.3 -95,-9.6 -13.8,-2.3 -27.7,-3.9 -41.5,-0.2 -15.4,4.1 -23.9,15.5 -23.4,31.9 0.9,33.3 21.5,63.7 55.7,72.2 9.5,2.4 19.3,2.2 29,2.5 13.5,0.4 27,0.7 40.6,0.9 5,0.1 6.4,1.2 4.7,6.6 -8.3,25.4 -2,47.8 15.5,67.3 2.7,3 5.8,5.7 9.6,7.2 4.3,1.6 4.8,4.2 4.1,8.2 -7.5,40.3 17.4,72.9 58.3,76 13.4,1 26,-2.5 37.1,-10.3 3.1,-2.2 5.5,-2.4 9.1,-1.1 36.1,12.1 71,10.6 103.6,-10.8 13.1,-8.6 23.3,-20.1 31.6,-33.3 1.5,-2.4 2.8,-4.2 6.2,-4.1 36.4,0.6 55.6,-27.5 61.2,-55.6 1.3,-6.5 1.6,-13 1.7,-19.6 -1.8,-37.5 -14.8,-69.3 -46.4,-91.2 z m 19,134 c -7.9,11.9 -19.2,18.1 -33.4,19 6.6,-31 9.9,-61 -7.8,-89.3 0.1,0.6 0,1.2 0.2,1.8 6.8,23.9 7.3,48 -0.6,71.6 -23.1,69 -94.2,89.6 -152.2,53.4 -12.5,-7.8 -22.3,-6.8 -34,-1.4 4.7,4.8 10.5,2.9 15.8,3.1 4.5,0.1 18.9,10.1 17.5,12.5 -3.3,5.6 -9.5,6.4 -15.5,6.9 -0.8,0.1 -1.7,0.1 -2.5,0.2 -26.8,0.8 -48.9,-16.1 -53.3,-40.8 -4.1,-23.1 1.7,-43.9 15,-62.8 1.7,-2.5 3.5,-4.9 6.3,-8.8 -5.8,2.2 -8.8,5.2 -11.7,8.1 -5.9,5.9 -10.6,12.6 -14.4,20 -2.2,4.2 -4.4,4.1 -7.9,2.1 -4.9,-2.8 -8.6,-6.7 -11.8,-11.3 -15.4,-22.4 -12.1,-50.9 8.5,-71.5 10.3,-10.3 22.3,-18.1 35.7,-23.9 -1.4,-0.2 -2.6,-0.1 -3.8,0.2 -14.3,3.9 -26.8,11.2 -38.1,20.6 -3.9,3.3 -7.7,4.7 -12.6,4.2 -22.5,-2.1 -45.2,-1.9 -67.8,-2.5 -32.3,-0.8 -58.1,-27.7 -58,-60.1 0,-10.8 4.3,-16.1 15,-18.7 7.7,-1.9 15.6,-1.7 23.3,-0.5 28.6,4.4 57.1,8.9 86,10.3 21.5,1.1 43,1.5 64.5,-1.6 23.6,-3.4 47.1,-7.3 71.2,-4.4 33.4,4 63.3,15.5 88.7,37.9 2.5,2.2 5.1,4.5 7.6,6.7 -0.5,-3.5 -2.2,-6.2 -3.6,-8.9 -0.8,-1.6 -3,-3.1 -2,-5 1.2,-2.3 3.8,-1.4 5.8,-1.2 19.4,1.9 36.3,9.8 50.2,23 20.4,19.2 29.3,43.9 30,71.6 0.5,13.8 -2.4,27.4 -10.3,39.5 z m -71,-42 c -28.7,0.5 -55.8,6.6 -83.3,17.4 2.2,-4.6 4.4,-6.9 7,-8.6 20.8,-13.3 43.5,-18.6 68,-14.7 3.1,0.5 6.8,1.4 8.3,5.9 z M 481,441.4 c 16.3,-12.3 34.1,-9.9 51.7,-4.2 10,3.2 19.5,8.1 24,20.5 -13.2,-5.5 -24.9,-10.6 -37.3,-13.9 -12.8,-3.3 -25.5,-2.2 -38.4,-2.4 z m 9.8,49.2 c 18.7,-17.1 68.4,-19.2 81.2,2.4 -27,-9.9 -53.5,-7 -81.2,-2.4 z"
   id="path329" />
			<path
   d="m 531,107.9 c -2.4,-13.8 -12.7,-22.8 -27.3,-25.2 -14.1,-2.4 -27.8,-0.2 -41.5,2.1 -39.5,6.5 -79.1,10.6 -119.1,7.9 -13.9,-0.9 -27.6,-3.6 -41.4,-5.3 -44.2,-5.3 -85.7,2 -123.5,26.6 -3.7,2.4 -7.2,3.6 -11.7,3.2 -55.7,-5 -89.3,35.7 -99.4,78.1 -5.8,24.5 -5.2,48.7 7.6,71.2 11.1,19.8 28,30.5 51,30.6 3.8,0 5.6,1.5 7.5,4.4 22.9,35.4 55.7,52.3 97.6,51.3 12.9,-0.3 25.5,-3 37.6,-7.6 3.4,-1.3 5.7,-0.8 8.7,1.2 21.2,14.2 48.5,14 69.7,-0.3 21,-14.1 31,-38.4 26.1,-63.4 -1,-5.2 -0.3,-7.9 5,-11.1 15.6,-9.4 22.9,-24.7 26.3,-42.2 2.2,-11.3 1,-22.3 -3,-33 -1.6,-4.3 0.1,-4.4 3.4,-4.7 10.3,-0.9 20.7,-1.2 31,-1.1 12.3,0.1 24.6,0.8 36.6,-1.9 31.5,-7 49.9,-27.3 57.4,-58.1 2.2,-7.5 2.7,-15.1 1.4,-22.7 z m -33,52.5 c -13,12.7 -29.3,16 -46.6,16 -20.7,0.1 -41.4,0.2 -62.1,2 -3.4,0.3 -6,-0.7 -8.6,-3 -8.9,-7.9 -19.1,-13.8 -30,-18.6 -2.3,-1 -4.7,-1.9 -7.1,-2.6 -2.4,-0.7 -4.9,-1 -7.3,-1.5 14.7,6.4 27.7,14.9 38.4,26.5 12.4,13.4 18.8,29 15.7,47.5 -2.2,13.2 -7.9,24.4 -19,32.4 -4.2,3 -7.5,3.7 -10.3,-2.3 -3.4,-7.3 -8.5,-13.6 -14.2,-19.3 -4.3,-4.4 -5.5,-5.1 -10.6,-6.5 12,14.6 19.8,30.4 21.6,48.9 3.5,36.8 -14.6,57.7 -48.1,62.6 -7.2,1 -14.3,-0.1 -20.8,-3.7 -3,-1.6 -4.4,-2.9 -1.1,-6.3 6.3,-6.6 12.5,-11.8 22.5,-9.6 3.1,0.7 6.5,-0.1 8.5,-3.4 -3,-1 -5.6,-1.8 -8.1,-2.8 -8.6,-3.5 -16.4,-2.6 -23.5,3.6 -4.2,3.6 -9.2,5.9 -14.3,8.1 -31.7,13.6 -63.7,16 -94.1,-2.4 -38.2,-23.1 -53.1,-58.9 -51.4,-102.5 0.4,-10 2.9,-19.7 5.5,-30.8 -5.5,6.8 -8.2,13.4 -10,20.3 -5.7,21.8 -4.6,43.5 0.9,65.1 1.3,5.1 -0.4,5.9 -4.6,5 -13.9,-2.8 -24.2,-10.5 -30.7,-23.1 -8.3,-16.1 -9.3,-33.2 -6.3,-50.6 6.7,-38.4 27.6,-65 65.5,-76.9 4.8,-1.5 9.8,-2.6 14.9,-2.6 4,0 6.2,1.2 3,5.6 -2.3,3.2 -4.5,6.5 -6,11.8 1.9,-1.6 2.8,-2.3 3.5,-3 38,-37.1 84.4,-48.2 135.7,-43.1 14.3,1.4 28.4,4.4 42.7,5.4 41.7,3 83,-1.5 124.2,-8.2 11.8,-1.9 23.7,-4.1 35.9,-1.8 10.9,2 16,7.6 15.9,18.5 -0.4,17.9 -6.9,33 -19.6,45.3 z M 243.9,239 c -26.2,-10.2 -53.4,-15.3 -82.1,-16.6 14.9,-14.5 70.4,-3.1 82.1,16.6 z m 25.4,-107.7 c -27.1,-5.6 -50.9,3.9 -75,13.8 9.6,-18.4 27.3,-21.8 45.4,-23.8 13.2,-1.5 25.7,2.9 29.6,10 z m -10.4,47.8 c -27.1,-4.6 -53.7,-7.1 -80.4,2.2 13.4,-22.5 65,-18.6 80.4,-2.2 z"
   id="path331" />
		</g>

</svg>
